# AST/ASF file generated using VICON BodyLanguage
# -----------------------------------------------
:version 1.10
:name VICON
:units
  mass 1.0
  length 0.45
  angle deg
:documentation
   .ast/.asf automatically generated from VICON data using
   VICON BodyBuilder and BodyLanguage model FoxedUp or BRILLIANT.MOD
:root
   order TX TY TZ RX RY RZ
   axis XYZ
   position 0 0 0  
   orientation 0 0 0 
:bonedata
  begin
     id 1 
     name lhipjoint
     direction 0.64773 -0.699417 0.302095 
     length 2.48597 
     axis 0 0 0  XYZ
  end
  begin
     id 2 
     name lfemur
     direction 0.34202 -0.939693 0  
     length 6.71947  
     axis 0 0 20  XYZ
    dof rx ry rz
    limits (-160.0 20.0)
           (-70.0 70.0)
           (-60.0 70.0)
  end
  begin
     id 3 
     name ltibia
     direction 0.34202 -0.939693 0   
     length 8.08777   
     axis 0 0 20   XYZ
    dof rx
    limits (-10.0 170.0)
  end
  begin
     id 4 
     name lfoot
     direction 0.0808503 -0.222134 0.971658   
     length 2.08264   
     axis -90 7.62852e-016 20   XYZ
    dof rx rz
    limits (-45.0 90.0)
           (-70.0 20.0)
  end
  begin
     id 5 
     name ltoes
     direction 1.53502e-011 -4.22007e-011 1   
     length 1.04662   
     axis -90 7.62852e-016 20   XYZ
    dof rx
    limits (-90.0 20.0)
  end
  begin
     id 6 
     name rhipjoint
     direction -0.610924 -0.726792 0.313919   
     length 2.39233  
     axis 0 0 0  XYZ 
  end
  begin
     id 7 
     name rfemur
     direction -0.34202 -0.939693 0   
     length 6.96955   
     axis 0 0 -20   XYZ
    dof rx ry rz
    limits (-160.0 20.0)
           (-70.0 70.0)
           (-70.0 60.0)
  end
  begin
     id 8 
     name rtibia
     direction -0.34202 -0.939693 0   
     length 8.19584   
     axis 0 0 -20   XYZ
    dof rx
    limits (-10.0 170.0)
 end
 begin
     id 9 
     name rfoot
     direction -0.077777 -0.213691 0.9738   
     length 2.07539  
     axis -90 -7.62852e-016 -20   XYZ
    dof rx rz
    limits (-45.0 90.0)
           (-20.0 70.0)
  end
  begin
     id 10 
     name rtoes
     direction -1.53558e-011 -4.22006e-011 1   
     length 1.04381   
     axis -90 -7.62852e-016 -20   XYZ
    dof rx
    limits (-90.0 20.0)
  end
  begin
     id 11 
     name lowerback
     direction -0.00971646 0.996074 0.0879841   
     length 1.67643   
     axis 0 0 0   XYZ
    dof rx ry rz
    limits (-20.0 45.0)
           (-30.0 30.0)
           (-30.0 30.0)
  end
  begin
     id 12 
     name upperback
     direction 0.0127391 0.991676 0.128127   
     length 1.63741   
     axis 0 0 0   XYZ
    dof rx ry rz
    limits (-20.0 45.0)
           (-30.0 30.0)
           (-30.0 30.0)
  end
  begin
     id 13 
     name thorax
     direction 0.0167583 0.996049 0.0872067   
     length 1.65931   
     axis 0 0 0   XYZ
    dof rx ry rz
    limits (-20.0 45.0)
           (-30.0 30.0)
           (-30.0 30.0)
  end
  begin
     id 14 
     name lowerneck
     direction -0.0317829 0.998312 0.0486079   
     length 1.79021   
     axis 0 0 0   XYZ
    dof rx ry rz
    limits (-20.0 45.0)
           (-30.0 30.0)
           (-30.0 30.0)
  end
  begin
     id 15 
     name upperneck
     direction 0.0896851 0.972452 -0.215159   
     length 1.78797   
     axis 0 0 0   XYZ
    dof rx ry rz
    limits (-20.0 45.0)
           (-30.0 30.0)
           (-30.0 30.0)
  end
  begin
     id 16
     name head
     direction 0.0310949 0.996503 -0.0775582  
     length 1.81549  
     axis 0 0 0   XYZ
    dof rx ry rz
    limits (-20.0 45.0)
           (-30.0 30.0)
           (-30.0 30.0)
  end
  begin
     id 17 
     name lclavicle
     direction 0.853638 0.502051 -0.138733  
     length 3.31627  
     axis 0 0 0   XYZ
    dof ry rz
    limits (-20.0 10.0)
           (0.0 20.0)
  end
  begin
     id 18 
     name lhumerus
     direction 1 -4.48962e-011 -1.41788e-018   
     length 5.54893   
     axis 180 -30 -90   XYZ
    dof rx ry rz
    limits (-60.0 90.0)
           (-90.0 90.0)
           (-90.0 90.0)
  end
  begin
     id 19
     name lradius
     direction 1 -4.48962e-011 -4.95754e-027   
     length 3.02898   
     axis 180 -30 -90   XYZ
    dof rx
    limits (-10.0 170.0)
  end
  begin
     id 20
     name lwrist
     direction 1 -4.48952e-011 -1.03764e-026   
     length 1.51449   
     axis 9.09556e-015 90 90   XYZ
    dof ry
    limits (-180.0 0.0)
 end
  begin
     id 21 
     name lhand
     direction 1 -4.4902e-011 -2.07528e-026   
     length 0.640951   
     axis 1.3242e-014 90 90   XYZ
    dof rx rz
    limits (-90.0 90.0)
           (-45.0 45.0)
  end
  begin
     id 22 
     name lfingers
     direction 1 -4.49014e-011 -4.15056e-026   
     length 0.516751   
     axis 2.64841e-014 90 90   XYZ
    dof rx
    limits (0.0 90.0)
  end
  begin
     id 23
     name lthumb
     direction 0.707107 -6.35008e-011 0.707107   
     length 0.741954   
     axis -90 45 2.85299e-015   XYZ
    dof rx rz
    limits (-45.0 45.0)
           (-45.0 45.0)
  end
  begin
     id 24 
     name rclavicle
     direction -0.888531 0.455324 -0.0565039   
     length 3.20126  
     axis 0 0 0   XYZ 
    dof ry rz
    limits (-10.0 20.0)
           (-20.0 0.0)
  end
  begin
     id 25 
     name rhumerus
     direction -1 -4.48946e-011 -8.98298e-028  
     length 5.3519   
     axis 180 30 90   XYZ
    dof rx ry rz
    limits (-90.0 60.0)
           (-90.0 90.0)
           (-90.0 90.0)
  end
  begin
     id 26 
     name rradius
     direction -1 -4.4899e-011 -3.18779e-027   
     length 3.02531   
     axis 180 30 90   XYZ
    dof rx
    limits (-10.0 170.0)
  end
  begin
     id 27 
     name rwrist
     direction -1 -4.4897e-011 -1.03764e-026   
     length 1.51266   
     axis 9.09556e-015 -90 -90   XYZ
    dof ry
    limits (-180.0 0.0)
  end
  begin
     id 28
     name rhand
     direction -1 -4.48941e-011 -2.07528e-026   
     length 0.78389   
     axis 1.3242e-014 -90 -90   XYZ
    dof rx rz
    limits (-90.0 90.0)
           (-45.0 45.0)
  end
  begin
     id 29
     name rfingers
     direction -1 -4.49012e-011 -4.15056e-026   
     length 0.631992   
     axis 2.64841e-014 -90 -90   XYZ
    dof rx
    limits (0.0 90.0)
  end
  begin
     id 30
     name rthumb
     direction -0.707107 -6.3496e-011 0.707107   
     length 0.907418   
     axis -90 -45 -2.85299e-015   XYZ
    dof rx rz
    limits (-45.0 45.0)
           (-45.0 45.0)
  end
:hierarchy
  begin
    root lhipjoint rhipjoint lowerback
    lhipjoint lfemur
    lfemur ltibia
    ltibia lfoot
    lfoot ltoes
    rhipjoint rfemur
    rfemur rtibia
    rtibia rfoot
    rfoot rtoes
    lowerback upperback
    upperback thorax
    thorax lowerneck lclavicle rclavicle
    lowerneck upperneck
    upperneck head
    lclavicle lhumerus
    lhumerus lradius
    lradius lwrist
    lwrist lhand lthumb
    lhand lfingers
    rclavicle rhumerus
    rhumerus rradius
    rradius rwrist
    rwrist rhand rthumb
    rhand rfingers
  end

#!OML:ASF E:\Style3\Style3.ASF
:FULLY-SPECIFIED
:DEGREES
1988
root -0.971 17.6929 -0.976864 -145.701 64.117 -180.893
lowerback 15.5282 1.15344 -1.6899
upperback -3.1031 1.22431 0.163975
thorax -12.2301 0.704338 0.82312
lowerneck -16.1331 1.66653 -1.90454
upperneck 1.24819 2.68941 1.13864
head 3.217 1.44599 0.931
rclavicle 1.61016e-014 1.35174e-014
rhumerus -22.4418 28.9057 -64.7096
rradius 145.549
rwrist -55.3283
rhand 33.7161 18.124
rfingers 7.12502
rthumb 57.0133 1.54908
lclavicle 1.61016e-014 1.35174e-014
lhumerus -26.3717 -33.5004 73.1219
lradius 143.927
lwrist 60.7918
lhand 34.7777 26.2962
lfingers 7.12502
lthumb 57.9433 42.0684
rfemur -36.9056 1.58001 10.1891
rtibia 17.9652
rfoot -16.655 -35.0534
rtoes 1.3925
lfemur -50.8553 -18.2191 -7.55525
ltibia 20.0001
lfoot -4.64158 1.48183
ltoes -20.3193
1989
root -0.972538 17.6942 -0.976056 -146.235 64.1193 -181.222
lowerback 15.2817 1.12229 -1.66093
upperback -3.19782 1.19288 0.164021
thorax -12.1898 0.688293 0.817642
lowerneck -16.089 1.51704 -1.98899
upperneck 1.88715 2.47424 1.19642
head 3.43735 1.32577 0.956948
rclavicle 1.70955e-014 -1.25234e-014
rhumerus -21.8518 28.2586 -63.7787
rradius 145.547
rwrist -55.271
rhand 34.3467 17.7271
rfingers 7.12502
rthumb 57.5666 1.62307
lclavicle 1.70955e-014 -1.25234e-014
lhumerus -25.1425 -32.8443 71.712
lradius 143.638
lwrist 60.9232
lhand 35.0813 26.3862
lfingers 7.12502
lthumb 58.208 41.9195
rfemur -36.6934 1.59287 10.0418
rtibia 18.0959
rfoot -16.8441 -35.0718
rtoes 1.53677
lfemur -50.4927 -18.2178 -7.89619
ltibia 19.873
lfoot -4.64981 1.30832
ltoes -20.4586
1990
root -0.973412 17.6954 -0.977022 -146.742 64.1856 -181.487
lowerback 15.0407 1.12244 -1.67141
upperback -3.25842 1.19795 0.183986
thorax -12.1163 0.692789 0.847261
lowerneck -15.9739 1.37697 -2.11082
upperneck 2.31264 2.28795 1.22054
head 3.56882 1.22238 0.976048
rclavicle -2.8625e-014 3.18055e-015
rhumerus -21.1695 27.6362 -62.7679
rradius 145.493
rwrist -54.908
rhand 34.7748 17.6283
rfingers 7.12502
rthumb 57.9408 1.85398
lclavicle -2.8625e-014 3.18055e-015
lhumerus -23.6712 -31.9268 70.1884
lradius 143.479
lwrist 61.3634
lhand 34.8984 26.912
lfingers 7.12502
lthumb 58.0487 42.5896
rfemur -36.469 1.587 9.91523
rtibia 18.2205
rfoot -16.959 -35.0109
rtoes 1.49262
lfemur -50.0899 -18.2251 -8.20983
ltibia 19.7435
lfoot -4.64265 1.22917
ltoes -20.3787
1991
root -0.975447 17.6964 -0.976861 -147.149 64.1802 -181.647
lowerback 14.7718 1.09994 -1.60428
upperback -3.29834 1.1882 0.202725
thorax -12.0001 0.68435 0.835888
lowerneck -16.0055 1.24562 -2.0879
upperneck 2.88315 2.09286 1.16535
head 3.78374 1.11146 0.945589
rclavicle -1.92821e-014 2.38542e-015
rhumerus -20.3705 26.9415 -61.7554
rradius 145.464
rwrist -54.4859
rhand 35.157 17.496
rfingers 7.12502
rthumb 58.2739 2.02291
lclavicle -1.92821e-014 2.38542e-015
lhumerus -22.0116 -30.7772 68.5972
lradius 143.32
lwrist 61.7971
lhand 34.9055 27.8634
lfingers 7.12502
lthumb 58.0548 43.5355
rfemur -36.2395 1.67554 9.81309
rtibia 18.3263
rfoot -17.0164 -35.078
rtoes 1.76194
lfemur -49.7234 -18.249 -8.43342
ltibia 19.6215
lfoot -4.59216 1.12202
ltoes -20.3128
1992
root -0.975363 17.6968 -0.978458 -147.494 64.243 -181.745
lowerback 14.3843 1.07991 -1.6105
upperback -3.33531 1.17224 0.244167
thorax -11.8122 0.679112 0.894083
lowerneck -15.8936 1.00696 -2.19775
upperneck 3.41827 1.76926 1.22276
head 3.95982 0.940754 0.963168
rclavicle -1.61016e-014 -1.19271e-015
rhumerus -19.5163 26.2912 -60.7093
rradius 145.488
rwrist -54.2953
rhand 35.659 17.201
rfingers 7.12502
rthumb 58.7098 2.13401
lclavicle -1.61016e-014 -1.19271e-015
lhumerus -20.5511 -29.7255 67.1374
lradius 143.161
lwrist 62.046
lhand 34.6024 28.4751
lfingers 7.12502
lthumb 57.7903 44.3832
rfemur -36.0095 1.7004 9.76401
rtibia 18.4031
rfoot -17.0727 -34.9989
rtoes 1.95471
lfemur -49.3737 -18.2886 -8.59501
ltibia 19.5244
lfoot -4.56007 1.09674
ltoes -19.9738
1993
root -0.973179 17.6965 -0.980243 -147.769 64.3554 -181.758
lowerback 14.0034 1.07779 -1.66749
upperback -3.39951 1.17322 0.306259
thorax -11.6612 0.686776 0.998814
lowerneck -15.7921 0.60962 -2.61753
upperneck 4.37365 1.2629 1.65989
head 3.80876 0.700779 1.03064
rclavicle -9.74045e-015 7.95139e-015
rhumerus -18.6923 25.6756 -59.6932
rradius 145.492
rwrist -54.0189
rhand 36.2201 17.0251
rfingers 7.12502
rthumb 59.1949 2.42649
lclavicle -9.74045e-015 7.95139e-015
lhumerus -19.159 -28.7627 65.7537
lradius 142.989
lwrist 62.2673
lhand 34.3174 28.8211
lfingers 7.12502
lthumb 57.5409 44.9474
rfemur -35.7676 1.78204 9.73058
rtibia 18.4539
rfoot -17.0995 -34.9555
rtoes 1.92868
lfemur -48.9681 -18.2402 -8.78959
ltibia 19.4253
lfoot -4.59841 1.05212
ltoes -20.237
1994
root -0.972952 17.6975 -0.980291 -148.171 64.3857 -181.917
lowerback 13.7633 1.03459 -1.72902
upperback -3.53242 1.11608 0.367254
thorax -11.6695 0.668665 1.11596
lowerneck -15.5378 0.216841 -3.19611
upperneck 4.93644 0.775992 2.21355
head 3.94954 0.469943 1.2586
rclavicle -2.127e-014 4.69132e-014
rhumerus -17.9274 25.1248 -58.7247
rradius 145.488
rwrist -53.6909
rhand 36.729 16.95
rfingers 7.12502
rthumb 59.6328 2.78989
lclavicle -2.127e-014 4.69132e-014
lhumerus -17.9051 -27.8205 64.4984
lradius 142.845
lwrist 62.4501
lhand 34.4031 28.8423
lfingers 7.12502
lthumb 57.616 44.9034
rfemur -35.5056 1.78971 9.66719
rtibia 18.4821
rfoot -17.1046 -34.9257
rtoes 1.97012
lfemur -48.5955 -18.2741 -8.99767
ltibia 19.3308
lfoot -4.61391 1.00753
ltoes -20.5328
1995
root -0.973527 17.702 -0.981073 -148.729 64.4425 -182.193
lowerback 13.6135 0.992193 -1.82827
upperback -3.65587 1.05065 0.419087
thorax -11.721 0.64918 1.24511
lowerneck -15.2832 -0.160408 -3.8055
upperneck 5.47746 0.311069 2.77923
head 4.0882 0.250951 1.49717
rclavicle 4.87022e-014 2.0276e-014
rhumerus -17.124 24.5876 -57.6924
rradius 145.48
rwrist -53.5852
rhand 37.0945 16.895
rfingers 7.12502
rthumb 59.9462 3.05829
lclavicle 4.87022e-014 2.0276e-014
lhumerus -16.5167 -26.8818 63.2552
lradius 142.739
lwrist 62.8741
lhand 34.3124 28.9961
lfingers 7.12502
lthumb 57.5366 45.1262
rfemur -35.1947 1.84791 9.51131
rtibia 18.5166
rfoot -16.6936 -35.0191
rtoes 1.34358
lfemur -48.1666 -18.3122 -9.30086
ltibia 19.2296
lfoot -4.65796 0.945332
ltoes -20.5999
1996
root -0.976931 17.7046 -0.981418 -149.105 64.4151 -182.345
lowerback 13.3817 0.947633 -1.81728
upperback -3.79052 1.00538 0.478615
thorax -11.7344 0.631895 1.31617
lowerneck -15.0508 -0.572365 -4.22968
upperneck 6.0848 -0.220829 3.12875
head 4.25834 -0.00977622 1.63407
rclavicle -1.72943e-014 1.51076e-014
rhumerus -16.3293 23.9817 -56.67
rradius 145.468
rwrist -53.7121
rhand 37.4571 16.6413
rfingers 7.12502
rthumb 60.2559 3.13246
lclavicle -1.72943e-014 1.51076e-014
lhumerus -14.9044 -26.1638 62.0449
lradius 142.715
lwrist 63.7528
lhand 33.4593 29.3593
lfingers 7.12502
lthumb 56.7872 46.1212
rfemur -34.9509 1.91861 9.42105
rtibia 18.5446
rfoot -16.3007 -35.1828
rtoes 0.773285
lfemur -47.8342 -18.3462 -9.49007
ltibia 19.1079
lfoot -4.6363 0.849223
ltoes -20.5272
1997
root -0.983819 17.7071 -0.976614 -149.347 64.2549 -182.377
lowerback 13.2287 0.833695 -1.73316
upperback -3.94392 0.88082 0.556756
thorax -11.8114 0.573364 1.38365
lowerneck -14.914 -0.984835 -4.52766
upperneck 6.79677 -0.76812 3.37899
head 4.48003 -0.279796 1.71839
rclavicle -5.36719e-015 -1.19271e-015
rhumerus -15.5653 23.5149 -55.8328
rradius 145.466
rwrist -53.8179
rhand 37.8011 16.2725
rfingers 7.12502
rthumb 60.5487 3.08141
lclavicle -5.36719e-015 -1.19271e-015
lhumerus -13.3227 -25.2664 60.8335
lradius 142.687
lwrist 64.9161
lhand 32.8498 29.7152
lfingers 7.12502
lthumb 56.2492 46.91
rfemur -34.6843 1.98061 9.4471
rtibia 18.5223
rfoot -17.0406 -35.1881
rtoes 2.32429
lfemur -47.5559 -18.3419 -9.58436
ltibia 18.9883
lfoot -4.60892 0.612668
ltoes -20.3919
1998
root -0.981227 17.71 -0.980725 -149.711 64.3745 -182.432
lowerback 12.9766 0.803273 -1.79246
upperback -4.02989 0.840742 0.60404
thorax -11.7582 0.562157 1.47965
lowerneck -14.8011 -1.4181 -4.93576
upperneck 7.5379 -1.32906 3.69288
head 4.71991 -0.553937 1.83815
rclavicle 2.94201e-014 -8.42847e-014
rhumerus -14.8379 23.1231 -55.0583
rradius 145.467
rwrist -53.8468
rhand 37.9795 15.9922
rfingers 7.12502
rthumb 60.7002 2.9685
lclavicle 2.94201e-014 -8.42847e-014
lhumerus -12.0425 -24.2494 59.8182
lradius 142.485
lwrist 65.9863
lhand 32.8831 29.6786
lfingers 7.12502
lthumb 56.2786 46.8502
rfemur -34.3397 1.98884 9.44002
rtibia 18.5156
rfoot -17.3687 -34.9907
rtoes 2.90055
lfemur -47.069 -18.2803 -9.84304
ltibia 18.896
lfoot -4.70902 0.564075
ltoes -20.2792
